<svg xmlns="http://www.w3.org/2000/svg" xmlns:xlink="http://www.w3.org/1999/xlink" width="1260" zoomAndPan="magnify" viewBox="0 0 944.88 536.249967" height="715" preserveAspectRatio="xMidYMid meet" version="1.0"><defs><g/></defs><g fill="#57e3e2" fill-opacity="1"><g transform="translate(0.599946, 309.638024)"><g><path d="M 10.65625 0 L 10.65625 -24.3125 L 35.625 -24.3125 L 35.625 0 Z M 10.65625 0 "/></g></g></g><g fill="#57e3e2" fill-opacity="1"><g transform="translate(46.883638, 309.638024)"><g><path d="M 10.65625 0 L 10.65625 -24.3125 L 35.625 -24.3125 L 35.625 0 Z M 10.65625 0 "/></g></g></g><g fill="#57e3e2" fill-opacity="1"><g transform="translate(93.16733, 309.638024)"><g><path d="M 10.65625 0 L 10.65625 -24.3125 L 35.625 -24.3125 L 35.625 0 Z M 10.65625 0 "/></g></g></g><g fill="#57e3e2" fill-opacity="1"><g transform="translate(139.451022, 309.638024)"><g><path d="M 87.734375 -3.5 L 87.734375 0 L 62.59375 0 C 61.257812 -3.882812 60.539062 -7.378906 60.4375 -10.484375 C 56.21875 -5.929688 51.832031 -2.65625 47.28125 -0.65625 C 42.726562 1.332031 37.566406 2.328125 31.796875 2.328125 C 23.691406 2.328125 17.171875 0 12.234375 -4.65625 C 7.296875 -9.320312 4.828125 -15.59375 4.828125 -23.46875 C 4.828125 -30.90625 6.851562 -37.09375 10.90625 -42.03125 C 14.957031 -46.976562 22.195312 -50.335938 32.625 -52.109375 L 49.28125 -54.609375 C 53.5 -55.273438 56.300781 -56.109375 57.6875 -57.109375 C 59.070312 -58.109375 59.765625 -59.769531 59.765625 -62.09375 C 59.765625 -65.425781 58.570312 -67.953125 56.1875 -69.671875 C 53.800781 -71.390625 49.890625 -72.25 44.453125 -72.25 C 35.679688 -72.25 30.910156 -68.144531 30.140625 -59.9375 L 7.65625 -59.9375 C 8.539062 -70.03125 11.953125 -77.710938 17.890625 -82.984375 C 23.828125 -88.265625 33.398438 -90.90625 46.609375 -90.90625 C 57.929688 -90.90625 66.753906 -88.679688 73.078125 -84.234375 C 79.410156 -79.796875 82.578125 -73.691406 82.578125 -65.921875 L 82.578125 -16.484375 C 82.578125 -12.378906 82.992188 -9.351562 83.828125 -7.40625 C 84.660156 -5.46875 85.960938 -4.164062 87.734375 -3.5 Z M 59.765625 -32.125 L 59.765625 -43.125 C 57.765625 -41.894531 55.597656 -40.921875 53.265625 -40.203125 C 50.941406 -39.484375 47.5625 -38.789062 43.125 -38.125 C 38.125 -37.457031 34.375 -36.097656 31.875 -34.046875 C 29.382812 -31.992188 28.140625 -28.96875 28.140625 -24.96875 C 28.140625 -21.75 29.132812 -19.164062 31.125 -17.21875 C 33.125 -15.28125 35.734375 -14.3125 38.953125 -14.3125 C 42.398438 -14.3125 45.734375 -15.0625 48.953125 -16.5625 C 52.171875 -18.0625 54.773438 -20.171875 56.765625 -22.890625 C 58.765625 -25.609375 59.765625 -28.6875 59.765625 -32.125 Z M 59.765625 -32.125 "/></g></g></g><g fill="#57e3e2" fill-opacity="1"><g transform="translate(232.018407, 309.638024)"><g><path d="M 90.90625 -61.9375 L 90.90625 0 L 67.59375 0 L 67.59375 -56.109375 C 67.59375 -60.992188 66.285156 -64.738281 63.671875 -67.34375 C 61.066406 -69.945312 57.320312 -71.25 52.4375 -71.25 C 47 -71.25 42.585938 -69.472656 39.203125 -65.921875 C 35.816406 -62.367188 34.125 -57.539062 34.125 -51.4375 L 34.125 0 L 10.828125 0 L 10.828125 -88.5625 L 33.125 -88.5625 L 33.125 -75.578125 L 33.46875 -75.578125 C 36.238281 -80.796875 39.898438 -84.65625 44.453125 -87.15625 C 49.003906 -89.65625 54.21875 -90.90625 60.09375 -90.90625 C 66.195312 -90.90625 71.578125 -89.65625 76.234375 -87.15625 C 80.898438 -84.65625 84.507812 -81.210938 87.0625 -76.828125 C 89.625 -72.441406 90.90625 -67.476562 90.90625 -61.9375 Z M 90.90625 -61.9375 "/></g></g></g><g fill="#57e3e2" fill-opacity="1"><g transform="translate(333.742639, 309.638024)"><g><path d="M 68.921875 0 L 68.921875 -11.15625 L 68.59375 -11.15625 C 65.8125 -6.488281 62.171875 -3.070312 57.671875 -0.90625 C 53.179688 1.25 48.273438 2.328125 42.953125 2.328125 C 35.296875 2.328125 28.664062 0.332031 23.0625 -3.65625 C 17.457031 -7.65625 13.15625 -13.234375 10.15625 -20.390625 C 7.15625 -27.546875 5.65625 -35.84375 5.65625 -45.28125 C 5.65625 -54.5 7.207031 -62.546875 10.3125 -69.421875 C 13.425781 -76.304688 17.785156 -81.609375 23.390625 -85.328125 C 28.992188 -89.046875 35.347656 -90.90625 42.453125 -90.90625 C 48.109375 -90.90625 53.101562 -89.707031 57.4375 -87.3125 C 61.769531 -84.925781 65.320312 -81.515625 68.09375 -77.078125 L 68.421875 -77.078125 L 68.421875 -119.53125 L 91.734375 -119.53125 L 91.734375 0 Z M 69.421875 -42.28125 C 69.421875 -51.382812 67.726562 -58.40625 64.34375 -63.34375 C 60.957031 -68.28125 55.9375 -70.75 49.28125 -70.75 C 43.0625 -70.75 38.234375 -68.390625 34.796875 -63.671875 C 31.359375 -58.960938 29.640625 -52.332031 29.640625 -43.78125 C 29.640625 -35.90625 31.359375 -29.441406 34.796875 -24.390625 C 38.234375 -19.335938 42.894531 -16.8125 48.78125 -16.8125 C 55.101562 -16.8125 60.125 -19.113281 63.84375 -23.71875 C 67.5625 -28.332031 69.421875 -34.519531 69.421875 -42.28125 Z M 69.421875 -42.28125 "/></g></g></g><g fill="#57e3e2" fill-opacity="1"><g transform="translate(435.466896, 309.638024)"><g/></g></g><g fill="#57e3e2" fill-opacity="1"><g transform="translate(481.750565, 309.638024)"><g><path d="M 83.078125 -76.75 C 89.179688 -86.1875 97.0625 -90.90625 106.71875 -90.90625 C 112.9375 -90.90625 118.375 -89.65625 123.03125 -87.15625 C 127.695312 -84.65625 131.273438 -81.1875 133.765625 -76.75 C 136.265625 -72.3125 137.515625 -67.316406 137.515625 -61.765625 L 137.515625 0 L 114.203125 0 L 114.203125 -54.4375 C 114.203125 -60.207031 113.035156 -64.453125 110.703125 -67.171875 C 108.378906 -69.890625 105.273438 -71.25 101.390625 -71.25 C 95.835938 -71.25 91.835938 -69.613281 89.390625 -66.34375 C 86.953125 -63.070312 85.734375 -58.71875 85.734375 -53.28125 L 85.734375 0 L 62.4375 0 L 62.4375 -54.9375 C 62.4375 -60.820312 61.296875 -65.007812 59.015625 -67.5 C 56.742188 -70 53.222656 -71.25 48.453125 -71.25 C 43.671875 -71.25 40.0625 -69.78125 37.625 -66.84375 C 35.1875 -63.90625 33.96875 -59.828125 33.96875 -54.609375 L 33.96875 0 L 10.65625 0 L 10.65625 -88.5625 L 32.96875 -88.5625 L 32.96875 -75.578125 L 33.296875 -75.578125 C 38.515625 -85.796875 46.894531 -90.90625 58.4375 -90.90625 C 64.09375 -90.90625 68.804688 -89.875 72.578125 -87.8125 C 76.359375 -85.757812 79.859375 -82.070312 83.078125 -76.75 Z M 83.078125 -76.75 "/></g></g></g><g fill="#57e3e2" fill-opacity="1"><g transform="translate(629.758491, 309.638024)"><g><path d="M 96.234375 -44.28125 C 96.234375 -34.738281 94.34375 -26.46875 90.5625 -19.46875 C 86.789062 -12.476562 81.460938 -7.097656 74.578125 -3.328125 C 67.703125 0.441406 59.820312 2.328125 50.9375 2.328125 C 42.0625 2.328125 34.179688 0.441406 27.296875 -3.328125 C 20.421875 -7.097656 15.09375 -12.476562 11.3125 -19.46875 C 7.539062 -26.46875 5.65625 -34.738281 5.65625 -44.28125 C 5.65625 -53.832031 7.566406 -62.128906 11.390625 -69.171875 C 15.222656 -76.222656 20.582031 -81.609375 27.46875 -85.328125 C 34.351562 -89.046875 42.175781 -90.90625 50.9375 -90.90625 C 59.820312 -90.90625 67.703125 -89.015625 74.578125 -85.234375 C 81.460938 -81.460938 86.789062 -76.082031 90.5625 -69.09375 C 94.34375 -62.101562 96.234375 -53.832031 96.234375 -44.28125 Z M 50.9375 -17.3125 C 58.039062 -17.3125 63.367188 -19.671875 66.921875 -24.390625 C 70.472656 -29.109375 72.25 -35.738281 72.25 -44.28125 C 72.25 -52.832031 70.445312 -59.460938 66.84375 -64.171875 C 63.238281 -68.890625 57.882812 -71.25 50.78125 -71.25 C 44.007812 -71.25 38.789062 -68.914062 35.125 -64.25 C 31.46875 -59.59375 29.640625 -52.9375 29.640625 -44.28125 C 29.640625 -35.507812 31.441406 -28.820312 35.046875 -24.21875 C 38.648438 -19.613281 43.945312 -17.3125 50.9375 -17.3125 Z M 50.9375 -17.3125 "/></g></g></g><g fill="#57e3e2" fill-opacity="1"><g transform="translate(731.482748, 309.638024)"><g><path d="M 62.09375 -90.5625 L 62.09375 -66.921875 C 60.320312 -67.148438 58.210938 -67.265625 55.765625 -67.265625 C 41.234375 -67.265625 33.96875 -60.378906 33.96875 -46.609375 L 33.96875 0 L 10.65625 0 L 10.65625 -88.5625 L 32.96875 -88.5625 L 32.96875 -73.25 L 33.296875 -73.25 C 36.628906 -79.800781 40.179688 -84.378906 43.953125 -86.984375 C 47.722656 -89.597656 52.273438 -90.90625 57.609375 -90.90625 C 58.160156 -90.90625 59.65625 -90.789062 62.09375 -90.5625 Z M 62.09375 -90.5625 "/></g></g></g><g fill="#57e3e2" fill-opacity="1"><g transform="translate(796.246629, 309.638024)"><g><path d="M 47.953125 -16.3125 C 51.390625 -16.3125 54.519531 -17.144531 57.34375 -18.8125 C 60.175781 -20.476562 62.039062 -22.863281 62.9375 -25.96875 L 86.90625 -25.96875 C 84.351562 -16.976562 79.632812 -10.015625 72.75 -5.078125 C 65.875 -0.140625 57.609375 2.328125 47.953125 2.328125 C 33.296875 2.328125 22.273438 -1.71875 14.890625 -9.8125 C 7.515625 -17.914062 3.828125 -29.960938 3.828125 -45.953125 C 3.828125 -54.722656 5.460938 -62.488281 8.734375 -69.25 C 12.015625 -76.019531 16.816406 -81.320312 23.140625 -85.15625 C 29.460938 -88.988281 37.117188 -90.90625 46.109375 -90.90625 C 58.765625 -90.90625 68.894531 -86.851562 76.5 -78.75 C 84.101562 -70.644531 87.90625 -58.378906 87.90625 -41.953125 L 87.90625 -37.953125 L 27.140625 -37.953125 C 27.910156 -23.523438 34.847656 -16.3125 47.953125 -16.3125 Z M 45.78125 -71.75 C 35.125 -71.75 29.128906 -65.535156 27.796875 -53.109375 L 63.9375 -53.109375 C 63.375 -58.878906 61.484375 -63.425781 58.265625 -66.75 C 55.046875 -70.082031 50.882812 -71.75 45.78125 -71.75 Z M 45.78125 -71.75 "/></g></g></g><g fill="#57e3e2" fill-opacity="1"><g transform="translate(888.814013, 309.638024)"><g><path d="M 33.96875 -33.125 L 21.640625 -33.125 L 14.984375 -89.0625 L 14.984375 -119.53125 L 40.625 -119.53125 L 40.625 -89.0625 Z M 15.65625 0 L 15.65625 -23.46875 L 39.953125 -23.46875 L 39.953125 0 Z M 15.65625 0 "/></g></g></g></svg>